<svg xmlns="http://www.w3.org/2000/svg" width="410" height="404" viewBox="0 0 410 404">
  <defs>
    <linearGradient id="b" x1="50%" x2="50%" y1="0%" y2="100%">
      <stop offset="0%" stop-color="#41D1FF"/>
      <stop offset="100%" stop-color="#BD34FE"/>
    </linearGradient>
    <linearGradient id="c" x1="50%" x2="50%" y1="0%" y2="100%">
      <stop offset="0%" stop-color="#FFEA83"/>
      <stop offset="8.333%" stop-color="#FFDD35"/>
      <stop offset="100%" stop-color="#FFA800"/>
    </linearGradient>
  </defs>
  <path fill="url(#b)" d="M399.641 59.525L215.64 388.621c-5.876 10.364-20.671 10.37-26.555.012L10.36 59.525c-6.28-11.074 3.234-24.43 15.778-22.372l178.862 30.012a15 15 0 0 0 5.044 0l173.859-29.189c12.516-2.101 22.054 11.232 15.805 22.314Z"/>
  <path fill="url(#c)" d="M280.155 37.467l-74.047 226.096c-2.909 8.888-15.574 8.871-18.461-.025L116.92 37.467c-2.644-8.068 3.87-16.128 12.24-15.257l57.106 5.942a12 12 0 0 0 2.485 0l50.774-5.139c8.317-.842 14.78 7.14 12.113 15.227Z"/>
</svg>
